#!OML:ASF F:\twosubjects\two\Thursday\Session 1\justin.ASF
:FULLY-SPECIFIED
:DEGREES
295
root 11.1804 16.4764 -8.2884 0.470095 -7.838 7.70659
lowerback 7.33795 -1.11274 -3.67994
upperback 2.00479 -1.6617 4.06024
thorax -1.80777 -0.832832 6.45582
lowerneck -11.1903 -11.3811 -9.40486
upperneck 22.1952 -16.3926 9.28479
head 10.5176 -7.41858 2.59622
rclavicle 3.53837e-014 -4.92986e-014
rhumerus 53.077 28.1772 -39.8257
rradius 91.4438
rwrist -2.71217
rhand -20.6264 10.5695
rfingers 7.12502
rthumb 5.73503 -19.3329
lclavicle 3.53837e-014 -4.92986e-014
lhumerus 5.59623 3.18474 85.8405
lradius 109.173
lwrist 34.596
lhand -22.5298 49.468
lfingers 7.12502
lthumb 3.89721 79.4121
rfemur -32.8638 -2.16606 -7.46232
rtibia 26.4471
rfoot -7.02046 3.23242
rtoes -23.7682
lfemur 10.1805 1.94122 -11.4869
ltibia 29.6784
lfoot -15.4064 -1.76363
ltoes -37.8074
296
root 11.1645 16.457 -8.28752 0.313392 -7.66148 8.19327
lowerback 7.1528 -1.0632 -4.06601
upperback 2.23024 -1.62655 3.84682
thorax -1.47034 -0.830407 6.4375
lowerneck -11.2499 -11.4203 -9.39077
upperneck 21.9752 -16.4715 9.49641
head 10.4771 -7.43397 2.65219
rclavicle 6.36111e-015 1.74931e-014
rhumerus 53.2306 28.4182 -39.4996
rradius 91.46
rwrist -3.18504
rhand -21.2589 10.7013
rfingers 7.12502
rthumb 5.12438 -19.2167
lclavicle 6.36111e-015 1.74931e-014
lhumerus 4.91501 3.23089 86.1393
lradius 109.382
lwrist 33.7773
lhand -22.6337 49.2399
lfingers 7.12502
lthumb 3.7968 79.1858
rfemur -32.7659 -3.13228 -7.74056
rtibia 26.492
rfoot -7.15153 3.90637
rtoes -25.0432
lfemur 10.1644 1.96193 -11.9619
ltibia 29.9473
lfoot -15.6463 -1.37668
ltoes -38.9223
297
root 11.1374 16.4591 -8.31151 0.564082 -7.34872 7.22235
lowerback 7.08254 -1.12736 -3.04643
upperback 2.36199 -1.63865 4.00041
thorax -1.31991 -0.842449 6.00984
lowerneck -11.3199 -11.5026 -9.57012
upperneck 21.7863 -16.6494 9.98643
head 10.5075 -7.47982 2.81519
rclavicle 2.78299e-015 2.22639e-014
rhumerus 53.1842 28.5263 -39.2905
rradius 91.8277
rwrist -3.48386
rhand -21.2268 10.729
rfingers 7.12502
rthumb 5.15534 -19.1883
lclavicle 2.78299e-015 2.22639e-014
lhumerus 4.76104 3.32858 86.0884
lradius 109.736
lwrist 33.2796
lhand -22.576 49.4542
lfingers 7.12502
lthumb 3.85253 79.3991
rfemur -32.8101 -3.13198 -6.67317
rtibia 26.4939
rfoot -7.21268 3.67682
rtoes -25.768
lfemur 9.68442 1.93042 -10.6547
ltibia 30.2227
lfoot -15.5291 -1.72001
ltoes -38.6241
298
root 11.1068 16.4649 -8.33082 0.738286 -7.08447 6.54862
lowerback 7.29128 -1.14373 -2.58372
upperback 2.36186 -1.62506 4.25918
thorax -1.44366 -0.832556 6.02411
lowerneck -11.2552 -11.7085 -9.98711
upperneck 21.5049 -16.9141 10.3269
head 10.4976 -7.60696 2.95433
rclavicle 1.39149e-014 -1.11319e-014
rhumerus 52.9672 28.9008 -39.2953
rradius 91.9754
rwrist -3.36939
rhand -21.2186 11.4936
rfingers 7.12502
rthumb 5.16327 -18.4235
lclavicle 1.39149e-014 -1.11319e-014
lhumerus 4.36254 3.45201 86.1042
lradius 110.14
lwrist 32.924
lhand -22.6685 49.5253
lfingers 7.12502
lthumb 3.76327 79.4718
rfemur -32.8472 -2.82458 -6.0637
rtibia 26.4486
rfoot -6.95596 3.42155
rtoes -24.6094
lfemur 9.22505 1.89112 -9.66141
ltibia 30.5123
lfoot -15.2396 -2.39627
ltoes -37.1425
299
root 11.0749 16.4683 -8.33214 0.873068 -6.98584 6.30181
lowerback 7.3411 -1.06999 -2.58016
upperback 2.40844 -1.52408 4.46938
thorax -1.42919 -0.784254 6.23799
lowerneck -11.1874 -11.9415 -10.4799
upperneck 21.0551 -17.1792 10.6707
head 10.4361 -7.74395 3.10537
rclavicle -7.55382e-015 -2.06736e-014
rhumerus 52.7762 29.2636 -39.2106
rradius 92.1023
rwrist -3.54932
rhand -21.7853 12.4955
rfingers 7.12502
rthumb 4.61607 -17.4342
lclavicle -7.55382e-015 -2.06736e-014
lhumerus 3.96097 3.59647 86.384
lradius 110.485
lwrist 32.506
lhand -22.8589 49.4086
lfingers 7.12502
lthumb 3.57936 79.3583
rfemur -32.9868 -2.7675 -5.83321
rtibia 26.4023
rfoot -6.56653 3.62973
rtoes -23.2887
lfemur 8.93298 2.11925 -9.16011
ltibia 30.7544
lfoot -15.2142 -2.74047
ltoes -37.0381
300
root 11.0392 16.4678 -8.33276 1.03098 -6.90934 6.06538
lowerback 7.16263 -1.00016 -2.5134
upperback 2.57588 -1.42803 4.5941
thorax -1.16686 -0.74668 6.31595
lowerneck -11.1565 -12.0394 -10.8182
upperneck 20.5182 -17.3138 11.1998
head 10.3414 -7.79264 3.31752
rclavicle -1.19271e-015 -4.77083e-014
rhumerus 52.745 29.4091 -39.122
rradius 92.3342
rwrist -3.67768
rhand -22.1069 12.7087
rfingers 7.12502
rthumb 4.30558 -17.2275
lclavicle -1.19271e-015 -4.77083e-014
lhumerus 3.60497 3.87974 86.7138
lradius 110.772
lwrist 32.0938
lhand -23.0206 48.9211
lfingers 7.12502
lthumb 3.42321 78.8733
rfemur -33.2365 -2.94387 -5.48613
rtibia 26.5198
rfoot -6.12808 4.02612
rtoes -23.3393
lfemur 8.75774 2.38666 -8.69177
ltibia 30.8506
lfoot -15.4041 -2.63643
ltoes -38.4922
301
root 11.0004 16.4578 -8.33652 1.15332 -6.65931 6.18065
lowerback 6.99579 -0.968932 -2.78132
upperback 2.71154 -1.40723 4.57885
thorax -0.929207 -0.746428 6.44532
lowerneck -10.8968 -12.0514 -11.0788
upperneck 19.925 -17.3616 11.7678
head 10.171 -7.80578 3.55937
rclavicle 3.1408e-014 -1.59028e-014
rhumerus 52.7903 29.5854 -39.0731
rradius 92.5327
rwrist -3.27752
rhand -22.2659 12.1926
rfingers 7.12502
rthumb 4.15201 -17.7467
lclavicle 3.1408e-014 -1.59028e-014
lhumerus 3.26263 4.09023 86.9194
lradius 111.193
lwrist 31.7765
lhand -23.2333 48.664
lfingers 7.12502
lthumb 3.21782 78.6194
rfemur -33.4717 -3.20238 -5.55539
rtibia 26.8043
rfoot -5.40946 4.32424
rtoes -22.8099
lfemur 8.576 2.35616 -8.66074
ltibia 30.8571
lfoot -15.5075 -2.41742
ltoes -39.8848
302
root 10.9531 16.449 -8.34237 1.31121 -6.28555 6.1719
lowerback 6.89158 -0.897277 -2.94022
upperback 2.86749 -1.32459 4.58733
thorax -0.715999 -0.715049 6.53474
lowerneck -10.9662 -12.1139 -11.2383
upperneck 19.5178 -17.4592 12.1972
head 10.1128 -7.82776 3.70989
rclavicle 1.39149e-014 -1.43125e-014
rhumerus 52.6137 29.5571 -39.0352
rradius 92.8258
rwrist -3.17907
rhand -22.4684 12.0211
rfingers 7.12502
rthumb 3.9565 -17.9219
lclavicle 1.39149e-014 -1.43125e-014
lhumerus 3.27463 4.06141 87.1106
lradius 111.641
lwrist 31.4769
lhand -23.2025 48.6942
lfingers 7.12502
lthumb 3.24755 78.6492
rfemur -33.7074 -3.28111 -5.52689
rtibia 27.1472
rfoot -4.38131 4.36904
rtoes -21.6967
lfemur 8.32498 2.16255 -8.45794
ltibia 30.8706
lfoot -15.5553 -2.28547
ltoes -39.5079
303
root 10.9062 16.4463 -8.34509 1.47198 -5.94895 5.98645
lowerback 6.57554 -0.80447 -2.8443
upperback 3.24766 -1.20169 4.61085
thorax -0.164458 -0.675647 6.48284
lowerneck -11.6998 -12.2275 -10.902
upperneck 19.2847 -17.5252 11.9787
head 10.1202 -7.82652 3.53154
rclavicle 7.95139e-016 4.77083e-015
rhumerus 52.4768 29.203 -39.1449
rradius 93.2593
rwrist -3.37236
rhand -22.3509 12.5499
rfingers 7.12502
rthumb 4.06995 -17.391
lclavicle 7.95139e-016 4.77083e-015
lhumerus 3.68046 4.02005 87.3341
lradius 111.97
lwrist 31.1149
lhand -23.2365 48.6521
lfingers 7.12502
lthumb 3.21471 78.6076
rfemur -33.9839 -3.34567 -5.25837
rtibia 27.526
rfoot -3.17608 4.5946
rtoes -21.981
lfemur 8.12079 1.87158 -8.09194
ltibia 30.8835
lfoot -15.5468 -2.25411
ltoes -38.923
304
root 10.8661 16.4417 -8.33914 1.70927 -5.56604 5.8612
lowerback 7.12223 -0.802577 -2.8995
upperback 2.75594 -1.19155 4.72391
thorax -0.975285 -0.638968 6.65536
lowerneck -11.6912 -12.1969 -10.3086
upperneck 19.6532 -17.3429 10.7392
head 10.0383 -7.81289 3.053
rclavicle -1.63003e-014 5.88403e-014
rhumerus 51.9717 30.0541 -39.3943
rradius 93.6979
rwrist -3.23382
rhand -22.4225 13.0624
rfingers 7.12502
rthumb 4.00075 -16.8798
lclavicle -1.63003e-014 5.88403e-014
lhumerus 2.50945 4.12401 87.4212
lradius 112.518
lwrist 30.8089
lhand -23.5296 48.5449
lfingers 7.12502
lthumb 2.93165 78.5045
rfemur -34.31 -3.70703 -5.03935
rtibia 27.9371
rfoot -1.93321 5.03077
rtoes -22.7673
lfemur 7.82972 1.54247 -7.8236
ltibia 30.8762
lfoot -15.4041 -2.51927
ltoes -38.2875
305
root 10.8233 16.4332 -8.33125 1.93721 -4.99634 5.90269
lowerback 7.08621 -0.865826 -2.96211
upperback 2.64455 -1.27665 4.70011
thorax -1.05827 -0.676718 6.67323
lowerneck -11.6926 -12.298 -10.2082
upperneck 19.5889 -17.4184 10.4275
head 9.98213 -7.87266 2.92045
rclavicle -2.38542e-015 -1.74931e-014
rhumerus 51.9991 30.4211 -39.453
rradius 93.9515
rwrist -2.94354
rhand -22.708 13.1627
rfingers 7.12502
rthumb 3.7251 -16.7845
lclavicle -2.38542e-015 -1.74931e-014
lhumerus 1.92333 4.17296 87.2449
lradius 113.081
lwrist 30.778
lhand -23.4459 48.2265
lfingers 7.12502
lthumb 3.01246 78.1849
rfemur -34.5675 -4.48149 -4.92597
rtibia 28.3821
rfoot -0.885114 5.59388
rtoes -22.9142
lfemur 7.46368 1.16446 -7.67839
ltibia 30.8453
lfoot -15.3466 -2.79963
ltoes -38.8096
